<?xml version="1.0" encoding="UTF-8"?>
<svg width="24px" height="24px" viewBox="0 0 24 24" version="1.1" xmlns="http://www.w3.org/2000/svg" xmlns:xlink="http://www.w3.org/1999/xlink">
    <title>icon/24/9</title>
    <g id="icon/24/9" stroke="none" stroke-width="1" fill="none" fill-rule="evenodd">
        <g id="编组" transform="translate(6.000000, 2.000000)" fill-rule="nonzero">
            <path d="M5.22727027,19 C5.22727027,19 3.3836711,16.2568284 3.82925476,14.0382525 C4.27483842,11.8196766 7.75970935,8.91505146 8.14454331,5.80899392 C8.52937726,2.70293638 5.9385052,0 5.9385052,0 C5.9385052,0 5.81468906,3.34823777 4.68026549,5.02222852 C3.54584193,6.69621926 0,9.07650494 0.000221283331,12.7673829 C-0.0185699398,14.8047721 1.15498055,18.1527536 5.22727027,19 Z" id="路径" fill="#1C2142"></path>
            <path d="M9.62364424,7.70491914 C9.66405824,8.75385425 8.6918055,10.5690527 7.11154086,12.6666667 C6.71769742,13.182549 5.45019081,16.1358664 7.9625516,19 C8.97547575,18.0317916 11.6497499,16.5794791 11.9738342,13.1910061 C12.2979184,9.80253308 9.50214482,7.18032345 9.62364424,7.70491914 Z" id="路径" fill="#27ABE0"></path>
        </g>
    </g>
</svg>